<svg id="visual" viewBox="0 0 960 540" width="960" height="540" xmlns="http://www.w3.org/2000/svg" xmlns:xlink="http://www.w3.org/1999/xlink" version="1.1"><rect x="0" y="0" width="960" height="540" fill="#d9d9d9"></rect><path d="M0 374L22.8 375.2C45.7 376.3 91.3 378.7 137 375.3C182.7 372 228.3 363 274 355.8C319.7 348.7 365.3 343.3 411.2 338.3C457 333.3 503 328.7 548.8 327.7C594.7 326.7 640.3 329.3 686 339C731.7 348.7 777.3 365.3 823 376C868.7 386.7 914.3 391.3 937.2 393.7L960 396L960 541L937.2 541C914.3 541 868.7 541 823 541C777.3 541 731.7 541 686 541C640.3 541 594.7 541 548.8 541C503 541 457 541 411.2 541C365.3 541 319.7 541 274 541C228.3 541 182.7 541 137 541C91.3 541 45.7 541 22.8 541L0 541Z" fill="#ed1a21"></path><path d="M0 384L22.8 388.5C45.7 393 91.3 402 137 401C182.7 400 228.3 389 274 385.7C319.7 382.3 365.3 386.7 411.2 391.5C457 396.3 503 401.7 548.8 396.7C594.7 391.7 640.3 376.3 686 366.3C731.7 356.3 777.3 351.7 823 350.7C868.7 349.7 914.3 352.3 937.2 353.7L960 355L960 541L937.2 541C914.3 541 868.7 541 823 541C777.3 541 731.7 541 686 541C640.3 541 594.7 541 548.8 541C503 541 457 541 411.2 541C365.3 541 319.7 541 274 541C228.3 541 182.7 541 137 541C91.3 541 45.7 541 22.8 541L0 541Z" fill="#cc111d"></path><path d="M0 405L22.8 408.2C45.7 411.3 91.3 417.7 137 414C182.7 410.3 228.3 396.7 274 390.8C319.7 385 365.3 387 411.2 387.8C457 388.7 503 388.3 548.8 390.5C594.7 392.7 640.3 397.3 686 406.3C731.7 415.3 777.3 428.7 823 429.2C868.7 429.7 914.3 417.3 937.2 411.2L960 405L960 541L937.2 541C914.3 541 868.7 541 823 541C777.3 541 731.7 541 686 541C640.3 541 594.7 541 548.8 541C503 541 457 541 411.2 541C365.3 541 319.7 541 274 541C228.3 541 182.7 541 137 541C91.3 541 45.7 541 22.8 541L0 541Z" fill="#ac0918"></path><path d="M0 456L22.8 451.2C45.7 446.3 91.3 436.7 137 432.7C182.7 428.7 228.3 430.3 274 437.7C319.7 445 365.3 458 411.2 457.2C457 456.3 503 441.7 548.8 435.5C594.7 429.3 640.3 431.7 686 431.8C731.7 432 777.3 430 823 434.3C868.7 438.7 914.3 449.3 937.2 454.7L960 460L960 541L937.2 541C914.3 541 868.7 541 823 541C777.3 541 731.7 541 686 541C640.3 541 594.7 541 548.8 541C503 541 457 541 411.2 541C365.3 541 319.7 541 274 541C228.3 541 182.7 541 137 541C91.3 541 45.7 541 22.8 541L0 541Z" fill="#8d0413"></path><path d="M0 483L22.8 477.7C45.7 472.3 91.3 461.7 137 457.7C182.7 453.7 228.3 456.3 274 459.5C319.7 462.7 365.3 466.3 411.2 466.5C457 466.7 503 463.3 548.8 462C594.7 460.7 640.3 461.3 686 461.8C731.7 462.3 777.3 462.7 823 466C868.7 469.3 914.3 475.7 937.2 478.8L960 482L960 541L937.2 541C914.3 541 868.7 541 823 541C777.3 541 731.7 541 686 541C640.3 541 594.7 541 548.8 541C503 541 457 541 411.2 541C365.3 541 319.7 541 274 541C228.3 541 182.7 541 137 541C91.3 541 45.7 541 22.8 541L0 541Z" fill="#6e010e"></path><path d="M0 486L22.8 487.8C45.7 489.7 91.3 493.3 137 494C182.7 494.7 228.3 492.3 274 492.3C319.7 492.3 365.3 494.7 411.2 496.7C457 498.7 503 500.3 548.8 501.8C594.7 503.3 640.3 504.7 686 501.3C731.7 498 777.3 490 823 486.5C868.7 483 914.3 484 937.2 484.5L960 485L960 541L937.2 541C914.3 541 868.7 541 823 541C777.3 541 731.7 541 686 541C640.3 541 594.7 541 548.8 541C503 541 457 541 411.2 541C365.3 541 319.7 541 274 541C228.3 541 182.7 541 137 541C91.3 541 45.7 541 22.8 541L0 541Z" fill="#520003"></path></svg>