<svg id="visual" viewBox="0 0 960 540" width="960" height="540" xmlns="http://www.w3.org/2000/svg" xmlns:xlink="http://www.w3.org/1999/xlink" version="1.1"><path d="M0 185L22.8 186.7C45.7 188.3 91.3 191.7 137 184.3C182.7 177 228.3 159 274 155.5C319.7 152 365.3 163 411.2 146C457 129 503 84 548.8 82.2C594.7 80.3 640.3 121.7 686 142.3C731.7 163 777.3 163 823 151.3C868.7 139.7 914.3 116.3 937.2 104.7L960 93L960 0L937.2 0C914.3 0 868.7 0 823 0C777.3 0 731.7 0 686 0C640.3 0 594.7 0 548.8 0C503 0 457 0 411.2 0C365.3 0 319.7 0 274 0C228.3 0 182.7 0 137 0C91.3 0 45.7 0 22.8 0L0 0Z" fill="#942673"></path><path d="M0 276L22.8 268C45.7 260 91.3 244 137 227.8C182.7 211.7 228.3 195.3 274 198C319.7 200.7 365.3 222.3 411.2 214.3C457 206.3 503 168.7 548.8 163.3C594.7 158 640.3 185 686 196.7C731.7 208.3 777.3 204.7 823 189.3C868.7 174 914.3 147 937.2 133.5L960 120L960 91L937.2 102.7C914.3 114.3 868.7 137.7 823 149.3C777.3 161 731.7 161 686 140.3C640.3 119.7 594.7 78.3 548.8 80.2C503 82 457 127 411.2 144C365.3 161 319.7 150 274 153.5C228.3 157 182.7 175 137 182.3C91.3 189.7 45.7 186.3 22.8 184.7L0 183Z" fill="#8b1f74"></path><path d="M0 314L22.8 304.2C45.7 294.3 91.3 274.7 137 257.7C182.7 240.7 228.3 226.3 274 230.8C319.7 235.3 365.3 258.7 411.2 251.3C457 244 503 206 548.8 199.7C594.7 193.3 640.3 218.7 686 233.2C731.7 247.7 777.3 251.3 823 233.3C868.7 215.3 914.3 175.7 937.2 155.8L960 136L960 118L937.2 131.5C914.3 145 868.7 172 823 187.3C777.3 202.7 731.7 206.3 686 194.7C640.3 183 594.7 156 548.8 161.3C503 166.7 457 204.3 411.2 212.3C365.3 220.3 319.7 198.7 274 196C228.3 193.3 182.7 209.7 137 225.8C91.3 242 45.7 258 22.8 266L0 274Z" fill="#821875"></path><path d="M0 363L22.8 356.7C45.7 350.3 91.3 337.7 137 321.5C182.7 305.3 228.3 285.7 274 289.3C319.7 293 365.3 320 411.2 329C457 338 503 329 548.8 321.7C594.7 314.3 640.3 308.7 686 314.8C731.7 321 777.3 339 823 335.5C868.7 332 914.3 307 937.2 294.5L960 282L960 134L937.2 153.8C914.3 173.7 868.7 213.3 823 231.3C777.3 249.3 731.7 245.7 686 231.2C640.3 216.7 594.7 191.3 548.8 197.7C503 204 457 242 411.2 249.3C365.3 256.7 319.7 233.3 274 228.8C228.3 224.3 182.7 238.7 137 255.7C91.3 272.7 45.7 292.3 22.8 302.2L0 312Z" fill="#781276"></path><path d="M0 374L22.8 373C45.7 372 91.3 370 137 361.8C182.7 353.7 228.3 339.3 274 343.8C319.7 348.3 365.3 371.7 411.2 372.5C457 373.3 503 351.7 548.8 344.5C594.7 337.3 640.3 344.7 686 354.7C731.7 364.7 777.3 377.3 823 373.7C868.7 370 914.3 350 937.2 340L960 330L960 280L937.2 292.5C914.3 305 868.7 330 823 333.5C777.3 337 731.7 319 686 312.8C640.3 306.7 594.7 312.3 548.8 319.7C503 327 457 336 411.2 327C365.3 318 319.7 291 274 287.3C228.3 283.7 182.7 303.3 137 319.5C91.3 335.7 45.7 348.3 22.8 354.7L0 361Z" fill="#6e0c76"></path><path d="M0 401L22.8 404.5C45.7 408 91.3 415 137 414C182.7 413 228.3 404 274 403.2C319.7 402.3 365.3 409.7 411.2 409.7C457 409.7 503 402.3 548.8 403.2C594.7 404 640.3 413 686 414C731.7 415 777.3 408 823 398.2C868.7 388.3 914.3 375.7 937.2 369.3L960 363L960 328L937.2 338C914.3 348 868.7 368 823 371.7C777.3 375.3 731.7 362.7 686 352.7C640.3 342.7 594.7 335.3 548.8 342.5C503 349.7 457 371.3 411.2 370.5C365.3 369.7 319.7 346.3 274 341.8C228.3 337.3 182.7 351.7 137 359.8C91.3 368 45.7 370 22.8 371L0 372Z" fill="#620877"></path><path d="M0 487L22.8 487.8C45.7 488.7 91.3 490.3 137 496.7C182.7 503 228.3 514 274 515C319.7 516 365.3 507 411.2 499.8C457 492.7 503 487.3 548.8 490C594.7 492.7 640.3 503.3 686 506.8C731.7 510.3 777.3 506.7 823 501.3C868.7 496 914.3 489 937.2 485.5L960 482L960 361L937.2 367.3C914.3 373.7 868.7 386.3 823 396.2C777.3 406 731.7 413 686 412C640.3 411 594.7 402 548.8 401.2C503 400.3 457 407.7 411.2 407.7C365.3 407.7 319.7 400.3 274 401.2C228.3 402 182.7 411 137 412C91.3 413 45.7 406 22.8 402.5L0 399Z" fill="#550678"></path><path d="M0 541L22.8 541C45.7 541 91.3 541 137 541C182.7 541 228.3 541 274 541C319.7 541 365.3 541 411.2 541C457 541 503 541 548.8 541C594.7 541 640.3 541 686 541C731.7 541 777.3 541 823 541C868.7 541 914.3 541 937.2 541L960 541L960 480L937.2 483.5C914.3 487 868.7 494 823 499.3C777.3 504.7 731.7 508.3 686 504.8C640.3 501.3 594.7 490.7 548.8 488C503 485.3 457 490.7 411.2 497.8C365.3 505 319.7 514 274 513C228.3 512 182.7 501 137 494.7C91.3 488.3 45.7 486.7 22.8 485.8L0 485Z" fill="#460679"></path></svg>